<svg width="24" height="22" viewBox="0 0 24 22" fill="none" xmlns="http://www.w3.org/2000/svg">
<path d="M21.2922 7.31433L19.9572 14.6784C19.8709 15.1542 19.4567 15.5 18.9732 15.5H7.02944C6.54596 15.5 6.13172 15.1542 6.04548 14.6784L4.8594 8.13595C4.77316 7.66022 4.35892 7.31433 3.87544 7.31433H2" stroke="black" stroke-width="2" stroke-linecap="round" stroke-linejoin="round"/>
<path fill-rule="evenodd" clip-rule="evenodd" d="M8 20.0476C8.55228 20.0476 9 19.6404 9 19.138C9 18.6357 8.55228 18.2285 8 18.2285C7.44772 18.2285 7 18.6357 7 19.138C7 19.6404 7.44772 20.0476 8 20.0476Z" stroke="black" stroke-width="2"/>
<path fill-rule="evenodd" clip-rule="evenodd" d="M18 20.0476C18.5523 20.0476 19 19.6404 19 19.138C19 18.6357 18.5523 18.2285 18 18.2285C17.4477 18.2285 17 18.6357 17 19.138C17 19.6404 17.4477 20.0476 18 20.0476Z" stroke="black" stroke-width="2"/>
</svg>
