<svg width="80" height="82" viewBox="0 0 80 82" fill="none" xmlns="http://www.w3.org/2000/svg">
<path d="M44.6513 0.6875C44.6513 2.47158 44.6513 4.25999 44.6513 6.13911C64.1197 9.50856 75.8482 20.2217 79.7182 38.879C76.9331 38.879 74.54 38.879 71.8688 38.879C70.1823 30.5288 65.7835 23.6732 58.2897 18.7616C54.2647 16.1222 49.8295 14.4245 44.7971 13.7895C44.7971 16.4505 44.7971 18.9906 44.7971 21.617C54.3787 23.9108 60.6144 29.4704 63.3631 38.9827C61.5808 38.9827 60.0218 39.1295 58.5221 38.9092C57.9524 38.8271 57.3461 37.9718 57.0589 37.3454C54.8618 32.5461 51.1924 29.2717 46.0005 27.5265C45.6632 27.4142 45.2894 27.384 44.7105 27.276C44.7105 31.1724 44.7105 34.9263 44.7105 38.8358C42.1396 38.8358 39.7648 38.8358 37.0663 38.8358C37.0663 34.9307 37.0663 30.978 37.0663 26.9995C25.3423 28.2825 18.4912 41.432 24.1025 51.5144C27.4847 57.5924 32.982 60.8625 40.2388 60.8539C47.5002 60.8452 53.075 57.5838 56.2658 51.428C57.4737 49.0953 58.8093 48.4214 61.2115 48.7627C61.795 48.8448 62.3921 48.8405 62.9938 48.875C61.8907 56.4217 54.2419 63.7481 45.6723 65.5495C32.6812 68.2753 20.0775 60.828 17.1465 48.6893C14.2383 36.6629 22.1014 24.7921 34.9968 21.9151C36.5603 21.5652 37.1574 21.1029 37.0344 19.5608C36.8839 17.6514 36.9979 15.7248 36.9979 13.3748C34.3997 13.9882 32.0385 14.3727 29.8049 15.0984C15.4098 19.7465 6.41176 33.6218 8.51313 47.8124C10.692 62.504 23.5281 73.4288 39.3773 74.0811C54.096 74.6859 67.9259 64.5819 71.3036 50.6375C71.6728 49.1126 72.2563 48.6288 73.838 48.7368C75.6294 48.8621 77.4345 48.767 80.0054 48.767C78.5923 52.7499 77.6715 56.5125 75.9758 59.9251C68.5458 74.8501 52.2499 83.0923 34.8601 80.9842C18.0764 78.9496 4.40611 66.5517 1.16972 50.4431C1.06032 49.8902 0.8552 49.3588 0.691101 48.8146C0.691101 45.376 0.691101 41.9374 0.691101 38.5032C0.859758 37.9675 1.06488 37.4405 1.19251 36.8962C4.5383 22.3298 13.6503 12.6059 28.5423 7.84975C31.218 6.99443 34.0715 6.63588 36.9432 6.02679C36.9432 4.24271 36.9432 2.46726 36.9432 0.6875C39.5141 0.6875 42.0804 0.6875 44.6513 0.6875Z" fill="black"/>
</svg>
